<svg width="234" height="92" viewBox="0 0 234 92" fill="none" xmlns="http://www.w3.org/2000/svg">
<g filter="url(#filter0_d_10_69)">
<path d="M108.167 11.2305C109.999 12.6877 113.167 14.4333 117 14.4333C120.833 14.4333 124.001 12.6877 125.833 11.2305C125.864 11.2064 125.895 11.1865 125.928 11.1715C125.957 11.1574 125.986 11.1474 126.016 11.1399L132.369 5.78999C136.116 2.63456 140.857 0.904724 145.755 0.904724H223.244C228.696 0.904724 233.116 5.32366 233.116 10.775C233.116 12.3477 232.747 13.834 232.093 15.154C231.756 15.8356 231.386 16.5164 231.014 17.1997L230.998 17.2296C229.663 19.6827 228.309 22.1689 228.309 24.9021V47.2727C228.309 47.4406 228.309 47.6077 228.307 47.7756C226.327 71.891 206.127 90.846 181.501 90.846H172.252C149.615 90.846 130.719 74.8311 126.275 53.5137C125.983 51.4755 125.832 49.3915 125.832 47.2727V34.7391C125.832 29.8613 121.878 25.9071 117 25.9071C112.122 25.9071 108.168 29.8613 108.168 34.7391V47.2727C108.168 49.3915 108.017 51.4755 107.725 53.5137C103.281 74.8311 84.3851 90.846 61.7486 90.846H52.4995C27.873 90.846 7.67342 71.891 5.69321 47.7756C5.69147 47.6077 5.69047 47.4406 5.69047 47.2727V24.9021C5.69047 22.1689 4.33678 19.6818 3.00246 17.2296L2.98575 17.1997C2.61435 16.5164 2.24444 15.8356 1.90654 15.154C1.25259 13.834 0.884766 12.3477 0.884766 10.775C0.884766 5.32366 5.30436 0.904724 10.7559 0.904724H88.2446C93.1431 0.904724 97.8837 2.63456 101.631 5.78999L107.984 11.1399C108.008 11.1457 108.031 11.1532 108.052 11.1632L108.072 11.1715C108.105 11.1865 108.136 11.2064 108.167 11.2305Z" fill="black"/>
<path d="M108.167 11.2305C109.999 12.6877 113.167 14.4333 117 14.4333C120.833 14.4333 124.001 12.6877 125.833 11.2305C125.864 11.2064 125.895 11.1865 125.928 11.1715C125.957 11.1574 125.986 11.1474 126.016 11.1399L132.369 5.78999C136.116 2.63456 140.857 0.904724 145.755 0.904724H223.244C228.696 0.904724 233.116 5.32366 233.116 10.775C233.116 12.3477 232.747 13.834 232.093 15.154C231.756 15.8356 231.386 16.5164 231.014 17.1997L230.998 17.2296C229.663 19.6827 228.309 22.1689 228.309 24.9021V47.2727C228.309 47.4406 228.309 47.6077 228.307 47.7756C226.327 71.891 206.127 90.846 181.501 90.846H172.252C149.615 90.846 130.719 74.8311 126.275 53.5137C125.983 51.4755 125.832 49.3915 125.832 47.2727V34.7391C125.832 29.8613 121.878 25.9071 117 25.9071C112.122 25.9071 108.168 29.8613 108.168 34.7391V47.2727C108.168 49.3915 108.017 51.4755 107.725 53.5137C103.281 74.8311 84.3851 90.846 61.7486 90.846H52.4995C27.873 90.846 7.67342 71.891 5.69321 47.7756C5.69147 47.6077 5.69047 47.4406 5.69047 47.2727V24.9021C5.69047 22.1689 4.33678 19.6818 3.00246 17.2296L2.98575 17.1997C2.61435 16.5164 2.24444 15.8356 1.90654 15.154C1.25259 13.834 0.884766 12.3477 0.884766 10.775C0.884766 5.32366 5.30436 0.904724 10.7559 0.904724H88.2446C93.1431 0.904724 97.8837 2.63456 101.631 5.78999L107.984 11.1399C108.008 11.1457 108.031 11.1532 108.052 11.1632L108.072 11.1715C108.105 11.1865 108.136 11.2064 108.167 11.2305Z" fill="url(#paint0_linear_10_69)" fill-opacity="0.1"/>
<path opacity="0.1" d="M108.167 11.2305C109.999 12.6877 113.167 14.4333 117 14.4333C120.833 14.4333 124.001 12.6877 125.833 11.2305C125.864 11.2064 125.895 11.1865 125.928 11.1715C125.957 11.1574 125.986 11.1474 126.016 11.1399L132.369 5.78999C136.116 2.63456 140.857 0.904724 145.755 0.904724H223.244C228.696 0.904724 233.116 5.32366 233.116 10.775C233.116 12.3477 232.747 13.834 232.093 15.154C231.756 15.8356 231.386 16.5164 231.014 17.1997L230.998 17.2296C229.663 19.6827 228.309 22.1689 228.309 24.9021V47.2727C228.309 47.4406 228.309 47.6077 228.307 47.7756C226.327 71.891 206.127 90.846 181.501 90.846H172.252C149.615 90.846 130.719 74.8311 126.275 53.5137C125.983 51.4755 125.832 49.3915 125.832 47.2727V34.7391C125.832 29.8613 121.878 25.9071 117 25.9071C112.122 25.9071 108.168 29.8613 108.168 34.7391V47.2727C108.168 49.3915 108.017 51.4755 107.725 53.5137C103.281 74.8311 84.3851 90.846 61.7486 90.846H52.4995C27.873 90.846 7.67342 71.891 5.69321 47.7756C5.69147 47.6077 5.69047 47.4406 5.69047 47.2727V24.9021C5.69047 22.1689 4.33678 19.6818 3.00246 17.2296L2.98575 17.1997C2.61435 16.5164 2.24444 15.8356 1.90654 15.154C1.25259 13.834 0.884766 12.3477 0.884766 10.775C0.884766 5.32366 5.30436 0.904724 10.7559 0.904724H88.2446C93.1431 0.904724 97.8837 2.63456 101.631 5.78999L107.984 11.1399C108.008 11.1457 108.031 11.1532 108.052 11.1632L108.072 11.1715C108.105 11.1865 108.136 11.2064 108.167 11.2305Z" fill="url(#paint1_radial_10_69)"/>
</g>
<g filter="url(#filter1_f_10_69)">
<path d="M132.766 29.2354C132.766 17.7575 142.07 8.45413 153.548 8.45413H200.203C211.68 8.45413 220.984 17.7575 220.984 29.2354V43.8803C220.984 65.6874 203.306 83.3647 181.5 83.3647H172.251C150.444 83.3647 132.766 65.6874 132.766 43.8803V29.2354Z" fill="black"/>
<path d="M132.766 29.2354C132.766 17.7575 142.07 8.45413 153.548 8.45413H200.203C211.68 8.45413 220.984 17.7575 220.984 29.2354V43.8803C220.984 65.6874 203.306 83.3647 181.5 83.3647H172.251C150.444 83.3647 132.766 65.6874 132.766 43.8803V29.2354Z" fill="black" stroke="black" stroke-width="0.2"/>
</g>
<g filter="url(#filter2_dd_10_69)">
<path d="M132.766 29.2354C132.766 17.7575 142.07 8.45413 153.548 8.45413H200.203C211.68 8.45413 220.984 17.7575 220.984 29.2354V43.8803C220.984 65.6874 203.306 83.3647 181.5 83.3647H172.251C150.444 83.3647 132.766 65.6874 132.766 43.8803V29.2354Z" fill="url(#paint2_radial_10_69)"/>
</g>
<g filter="url(#filter3_f_10_69)">
<path d="M13.0146 29.2354C13.0146 17.7575 22.3187 8.45413 33.7958 8.45413H80.4507C91.9286 8.45413 101.232 17.7575 101.232 29.2354V43.8803C101.232 65.6874 83.5546 83.3647 61.7479 83.3647H52.499C30.6923 83.3647 13.0146 65.6874 13.0146 43.8803V29.2354Z" fill="black"/>
<path d="M13.0146 29.2354C13.0146 17.7575 22.3187 8.45413 33.7958 8.45413H80.4507C91.9286 8.45413 101.232 17.7575 101.232 29.2354V43.8803C101.232 65.6874 83.5546 83.3647 61.7479 83.3647H52.499C30.6923 83.3647 13.0146 65.6874 13.0146 43.8803V29.2354Z" fill="black" stroke="black" stroke-width="0.2"/>
</g>
<g filter="url(#filter4_dd_10_69)">
<path d="M13.0146 29.2354C13.0146 17.7575 22.3187 8.45413 33.7958 8.45413H80.4507C91.9286 8.45413 101.232 17.7575 101.232 29.2354V43.8803C101.232 65.6874 83.5546 83.3647 61.7479 83.3647H52.499C30.6923 83.3647 13.0146 65.6874 13.0146 43.8803V29.2354Z" fill="url(#paint3_radial_10_69)"/>
</g>
<path opacity="0.05" d="M88.4274 41.7789C93.2505 37.8714 93.2218 29.8423 88.3633 23.8453C83.5048 17.8483 75.6564 16.1544 70.8333 20.0618C66.0102 23.9692 66.0389 31.9984 70.8974 37.9954C75.7559 43.9924 83.6043 45.6863 88.4274 41.7789Z" fill="url(#paint4_radial_10_69)"/>
<path opacity="0.05" d="M207.14 42.9251C211.963 39.0177 211.934 30.9886 207.076 24.9916C202.217 18.9946 194.369 17.3007 189.546 21.2081C184.723 25.1155 184.751 33.1446 189.61 39.1416C194.468 45.1386 202.317 46.8325 207.14 42.9251Z" fill="url(#paint5_radial_10_69)"/>
<defs>
<filter id="filter0_d_10_69" x="0.634766" y="0.654724" width="233.231" height="90.9413" filterUnits="userSpaceOnUse" color-interpolation-filters="sRGB">
<feFlood flood-opacity="0" result="BackgroundImageFix"/>
<feColorMatrix in="SourceAlpha" type="matrix" values="0 0 0 0 0 0 0 0 0 0 0 0 0 0 0 0 0 0 127 0" result="hardAlpha"/>
<feOffset dx="0.25" dy="0.25"/>
<feGaussianBlur stdDeviation="0.25"/>
<feComposite in2="hardAlpha" operator="out"/>
<feColorMatrix type="matrix" values="0 0 0 0 0 0 0 0 0 0 0 0 0 0 0 0 0 0 0.75 0"/>
<feBlend mode="normal" in2="BackgroundImageFix" result="effect1_dropShadow_10_69"/>
<feBlend mode="normal" in="SourceGraphic" in2="effect1_dropShadow_10_69" result="shape"/>
</filter>
<filter id="filter1_f_10_69" x="132.416" y="8.10413" width="88.918" height="75.6106" filterUnits="userSpaceOnUse" color-interpolation-filters="sRGB">
<feFlood flood-opacity="0" result="BackgroundImageFix"/>
<feBlend mode="normal" in="SourceGraphic" in2="BackgroundImageFix" result="shape"/>
<feGaussianBlur stdDeviation="0.125" result="effect1_foregroundBlur_10_69"/>
</filter>
<filter id="filter2_dd_10_69" x="131.716" y="7.40413" width="90.7181" height="77.4106" filterUnits="userSpaceOnUse" color-interpolation-filters="sRGB">
<feFlood flood-opacity="0" result="BackgroundImageFix"/>
<feColorMatrix in="SourceAlpha" type="matrix" values="0 0 0 0 0 0 0 0 0 0 0 0 0 0 0 0 0 0 127 0" result="hardAlpha"/>
<feOffset dx="0.2" dy="0.2"/>
<feGaussianBlur stdDeviation="0.625"/>
<feComposite in2="hardAlpha" operator="out"/>
<feColorMatrix type="matrix" values="0 0 0 0 1 0 0 0 0 1 0 0 0 0 1 0 0 0 0.05 0"/>
<feBlend mode="normal" in2="BackgroundImageFix" result="effect1_dropShadow_10_69"/>
<feColorMatrix in="SourceAlpha" type="matrix" values="0 0 0 0 0 0 0 0 0 0 0 0 0 0 0 0 0 0 127 0" result="hardAlpha"/>
<feOffset dx="-0.15" dy="-0.15"/>
<feGaussianBlur stdDeviation="0.15"/>
<feComposite in2="hardAlpha" operator="out"/>
<feColorMatrix type="matrix" values="0 0 0 0 1 0 0 0 0 1 0 0 0 0 1 0 0 0 0.05 0"/>
<feBlend mode="normal" in2="effect1_dropShadow_10_69" result="effect2_dropShadow_10_69"/>
<feBlend mode="normal" in="SourceGraphic" in2="effect2_dropShadow_10_69" result="shape"/>
</filter>
<filter id="filter3_f_10_69" x="12.6646" y="8.10413" width="88.9174" height="75.6106" filterUnits="userSpaceOnUse" color-interpolation-filters="sRGB">
<feFlood flood-opacity="0" result="BackgroundImageFix"/>
<feBlend mode="normal" in="SourceGraphic" in2="BackgroundImageFix" result="shape"/>
<feGaussianBlur stdDeviation="0.125" result="effect1_foregroundBlur_10_69"/>
</filter>
<filter id="filter4_dd_10_69" x="11.9646" y="7.40413" width="90.7174" height="77.4106" filterUnits="userSpaceOnUse" color-interpolation-filters="sRGB">
<feFlood flood-opacity="0" result="BackgroundImageFix"/>
<feColorMatrix in="SourceAlpha" type="matrix" values="0 0 0 0 0 0 0 0 0 0 0 0 0 0 0 0 0 0 127 0" result="hardAlpha"/>
<feOffset dx="0.2" dy="0.2"/>
<feGaussianBlur stdDeviation="0.625"/>
<feComposite in2="hardAlpha" operator="out"/>
<feColorMatrix type="matrix" values="0 0 0 0 1 0 0 0 0 1 0 0 0 0 1 0 0 0 0.05 0"/>
<feBlend mode="normal" in2="BackgroundImageFix" result="effect1_dropShadow_10_69"/>
<feColorMatrix in="SourceAlpha" type="matrix" values="0 0 0 0 0 0 0 0 0 0 0 0 0 0 0 0 0 0 127 0" result="hardAlpha"/>
<feOffset dx="-0.15" dy="-0.15"/>
<feGaussianBlur stdDeviation="0.15"/>
<feComposite in2="hardAlpha" operator="out"/>
<feColorMatrix type="matrix" values="0 0 0 0 1 0 0 0 0 1 0 0 0 0 1 0 0 0 0.05 0"/>
<feBlend mode="normal" in2="effect1_dropShadow_10_69" result="effect2_dropShadow_10_69"/>
<feBlend mode="normal" in="SourceGraphic" in2="effect2_dropShadow_10_69" result="shape"/>
</filter>
<linearGradient id="paint0_linear_10_69" x1="117" y1="5.57967" x2="117" y2="90.9133" gradientUnits="userSpaceOnUse">
<stop stop-color="#7A7A7A" stop-opacity="0"/>
<stop offset="0.232292" stop-color="#7A7A7A"/>
<stop offset="1" stop-color="#545454"/>
</linearGradient>
<radialGradient id="paint1_radial_10_69" cx="0" cy="0" r="1" gradientUnits="userSpaceOnUse" gradientTransform="translate(-0.0243723 7.52812) rotate(19.3231) scale(10.5979 20.3714)">
<stop stop-color="#CDCDCD"/>
<stop offset="1" stop-color="#929292" stop-opacity="0"/>
</radialGradient>
<radialGradient id="paint2_radial_10_69" cx="0" cy="0" r="1" gradientUnits="userSpaceOnUse" gradientTransform="translate(199.345 60.1313) rotate(-140.059) scale(56.2424 57.8824)">
<stop offset="0.176974" stop-color="#141414"/>
<stop offset="1"/>
</radialGradient>
<radialGradient id="paint3_radial_10_69" cx="0" cy="0" r="1" gradientUnits="userSpaceOnUse" gradientTransform="translate(79.5929 60.1313) rotate(-140.059) scale(56.2421 57.8822)">
<stop offset="0.176974" stop-color="#141414"/>
<stop offset="1"/>
</radialGradient>
<radialGradient id="paint4_radial_10_69" cx="0" cy="0" r="1" gradientUnits="userSpaceOnUse" gradientTransform="translate(81.6719 47.1419) rotate(-123.84) scale(27.5217 29.1295)">
<stop offset="0.191626" stop-color="#FAFFFF" stop-opacity="0"/>
<stop offset="1" stop-color="#FAFFFF"/>
</radialGradient>
<radialGradient id="paint5_radial_10_69" cx="0" cy="0" r="1" gradientUnits="userSpaceOnUse" gradientTransform="translate(200.386 48.2883) rotate(-123.84) scale(27.5217 29.1295)">
<stop offset="0.191626" stop-color="#FAFFFF" stop-opacity="0"/>
<stop offset="1" stop-color="#FAFFFF"/>
</radialGradient>
</defs>
</svg>
